<svg xmlns="http://www.w3.org/2000/svg" viewBox="0 0 100 100" enable-background="new 0 0 100 100"><circle fill="#4d6323" cx="50" cy="50" r="50"/><path opacity=".5" fill="#2f3d1c" d="m1.287 61.24c2.053 8.934 6.57 17.412 13.574 24.332 9.06 8.948 20.672 13.719 32.459 14.348l22.02-22.02 3.182-9.943 7.01-7.01-2.078-5.062-17.293-12.649-27.482 7.278 3.821-24.486-35.22 35.22"/><path fill="#ed9a8a" d="m22.75 52.729c-.228-.607-.358-1.264-.358-1.951 0-3.068 2.486-5.554 5.555-5.554.043 0 .083.004.126.005-.012-.143-.022-.287-.022-.432 0-3.068 2.487-5.556 5.555-5.556.919 0 1.784.228 2.548.622.401-2.672 2.701-4.724 5.486-4.724 1.302 0 2.497.451 3.444 1.201.926-1.779 2.783-2.996 4.928-2.996s4 1.217 4.928 2.998c.818-.648 1.822-1.073 2.92-1.177-.082.379-.1.78-.032 1.186.213 1.297 1.182 2.279 2.382 2.573-1.01.639-1.602 1.821-1.447 3.07-.125-.009-.25-.018-.377-.018-1.226 0-2.351.426-3.242 1.132-.871-1.675-2.618-2.821-4.637-2.821-2.02 0-3.765 1.146-4.636 2.819-.891-.706-3.689-2.27-3.239-1.13.574 1.455-1.706 3.538-2.084 6.05-.718-.372-2.475 1.985-3.339 1.985-2.887 0-7.361-1.84-7.361 1.047 0 .137.01.271.02.406-.039-.001-.077-.006-.117-.006-2.887 0-5.227 2.34-5.227 5.226 0 .647.124 1.265.339 1.836-1.536.696-2.673 2.111-2.984 3.816-1.442-1-2.391-2.665-2.391-4.556-.003-2.249 1.339-4.182 3.262-5.05"/><circle fill="#af564f" cx="61.55" cy="66.973" r="13.417"/><path fill="#ed9a8a" d="m80.53 57.785c0-2.251-1.342-4.185-3.266-5.057.229-.607.359-1.264.359-1.951 0-3.068-2.486-5.554-5.555-5.554-.043 0-.084.004-.126.005.012-.143.022-.287.022-.432 0-3.068-2.487-5.556-5.555-5.556-.92 0-1.784.228-2.548.622-.401-2.672-2.701-4.724-5.486-4.724-1.302 0-2.497.451-3.444 1.201-.926-1.779-2.783-2.996-4.927-2.996-2.146 0-4 1.217-4.929 2.998-.818-.648-1.822-1.073-2.921-1.177.083.379.1.78.033 1.186-.213 1.297-1.182 2.279-2.382 2.573 1.044.66 1.648 1.901 1.437 3.197-.283 1.731-1.916 2.904-3.646 2.621-.041-.008-.08-.019-.12-.026.032.283.029.575-.02.871-.283 1.731-1.916 2.903-3.646 2.621-1.064-.175-1.917-.86-2.35-1.764-.598 1.23-1.948 1.979-3.368 1.746-1.305-.214-2.288-1.196-2.574-2.409-1.854.9-3.136 2.796-3.136 4.996 0 .688.131 1.344.359 1.951-1.925.873-3.266 2.806-3.266 5.057 0 2.241 1.33 4.168 3.242 5.05-.214.59-.336 1.224-.336 1.888 0 3.067 2.486 5.555 5.555 5.555.115 0 .229-.01.342-.017.69 2.282 2.808 3.945 5.316 3.945 1.499 0 2.856-.597 3.856-1.562 1.018 1.162 2.51 1.9 4.177 1.9 1.651 0 3.13-.724 4.147-1.867 1.019 1.193 2.532 1.953 4.225 1.953 1.694 0 3.208-.76 4.226-1.956 1.018 1.146 2.498 1.87 4.149 1.87 1.668 0 3.159-.738 4.178-1.9.999.965 2.356 1.562 3.856 1.562 2.508 0 4.625-1.663 5.315-3.945.114.007.228.017.343.017 3.068 0 5.555-2.487 5.555-5.555 0-.664-.123-1.298-.336-1.888 1.914-.877 3.245-2.803 3.245-5.04m-10.779 1.89c.002-.002.002-.005.004-.007 0 .002.001.004.002.005-.002 0-.004.002-.006.002"/><g opacity=".5" fill="#f9cdaf"><path d="m31.498 46.516c-.013-.024-.028-.047-.04-.071-.024.053-.059.098-.087.147.043-.025.084-.051.127-.076"/><path d="m23.735 68.35c.031-.108.062-.215.101-.319-.197-.091-.388-.196-.572-.311.142.221.299.431.471.63"/><path d="m68.08 65.06h.01v-.01z"/><path d="m75.17 68.03c.127.35.215.717.266 1.096 1.01-.771 1.74-1.877 2.035-3.153-.543.895-1.342 1.617-2.301 2.057"/><path d="m23.858 58.52c-.215-.571-.338-1.188-.338-1.836 0-2.886 2.34-5.226 5.226-5.226.04 0 .078.005.118.006-.011-.135-.021-.27-.021-.406 0-1.165.386-2.237 1.03-3.106-.543.239-1.154.337-1.784.234-1.305-.214-2.288-1.196-2.574-2.409-1.854.9-3.136 2.796-3.136 4.996 0 .688.131 1.344.359 1.951-1.925.873-3.266 2.806-3.266 5.057 0 1.506.603 2.867 1.576 3.866.46-1.392 1.487-2.526 2.81-3.127"/><path d="m77.26 52.729c.229-.607.359-1.264.359-1.951 0-3.068-2.486-5.554-5.555-5.554-.043 0-.084.004-.126.005.012-.143.022-.287.022-.432 0-3.068-2.487-5.556-5.555-5.556-.92 0-1.784.228-2.548.622-.401-2.672-2.701-4.724-5.486-4.724-1.302 0-2.497.451-3.444 1.201-.926-1.779-2.783-2.996-4.927-2.996-2.146 0-4 1.217-4.929 2.998-.818-.648-1.822-1.073-2.921-1.177.083.379.1.78.033 1.186-.213 1.297-1.182 2.279-2.382 2.573 1.01.639 1.602 1.821 1.447 3.07.125-.009.249-.018.376-.018 1.227 0 2.837-2.25 3.728-1.544.871-1.674 2.134-.145 4.152-.145 2.02 0 4.299-1.203 5.169.47.891-.706 1.481 1.218 2.706 1.218 2.621 0 4.784 1.93 5.162 4.444.719-.372 1.531-.584 2.396-.584 2.887 0 5.226 2.339 5.226 5.226 0 .137-.011.271-.021.406.04-.001.078-.006.118-.006 2.886 0 5.226 2.34 5.226 5.226 0 .647-.123 1.265-.338 1.836 1.535.696 2.673 2.111 2.984 3.816 1.442-1 2.391-2.665 2.391-4.556.002-2.249-1.339-4.182-3.263-5.05"/><path d="m22.75 52.729c-.228-.607-.358-1.264-.358-1.951 0-3.068 2.486-5.554 5.555-5.554.043 0 .083.004.126.005-.012-.143-.022-.287-.022-.432 0-3.068 2.487-5.556 5.555-5.556.919 0 1.784.228 2.548.622.401-2.672 2.701-4.724 5.486-4.724 1.302 0 2.497.451 3.444 1.201.926-1.779 2.783-2.996 4.928-2.996s4 1.217 4.928 2.998c.818-.648 1.822-1.073 2.92-1.177-.082.379-.1.78-.032 1.186.213 1.297 1.182 2.279 2.382 2.573-1.01.639-1.602 1.821-1.447 3.07-.125-.009-.25-.018-.377-.018-1.226 0-2.351.426-3.242 1.132-.871-1.675-2.618-2.821-4.637-2.821-2.02 0-3.765 1.146-4.636 2.819-.891-.706-2.02-1.13-3.239-1.13-2.621 0-4.784 1.93-5.162 4.444-.718-.372-1.531-.584-2.396-.584-2.887 0-5.226 2.339-5.226 5.226 0 .137.01.271.02.406-.039-.001-.077-.006-.117-.006-2.887 0-5.227 2.34-5.227 5.226 0 .647.124 1.265.339 1.836-1.536.696-2.673 2.111-2.984 3.816-1.442-1-2.391-2.665-2.391-4.556-.003-2.25 1.339-4.183 3.262-5.05"/></g><path opacity=".5" fill="#af564f" d="m69.901 64.935c-.013-.776-.192-2.348-1.32-3.598-.01-.01-.021-.019-.03-.028.697-1.604.776-3.03.216-4.237-.192-.416-.447-.764-.727-1.063 1.493-1.257 3.156-.269 3.356-.141l.693.454.313-.769c1.326-3.249 4.292-2.301 4.625-2.182l.232-.643c.08-.212.143-.433.197-.656-.398-.13-4.105-1.225-6 2.292-1.17-.479-2.975-.664-4.49.769-.354-.217-.691-.372-.95-.473-.259-5.108-4.517-5.992-5.719-6.141.026-.75-.049-1.922-.573-3.047.961-.148 2.283-.603 3.414-1.895.074-.082 1.275-1.466 1.551-4.06-.286.094-.563.209-.827.345-.084-.558-.255-1.086-.49-1.576.048 2.829-1.188 4.307-1.257 4.385-1.213 1.385-2.688 1.508-3.271 1.498-.975-1.041-2.387-1.625-4.209-1.73h-7.218l-.069.003c-1.569.16-4.479 1.417-4.85 4.998-.773.099-2.078.413-3.097 1.403-.794.771-1.26 1.791-1.39 3.039h-2.953c-.476-.46-1.652-1.415-3.263-1.474-1.338-.053-2.634.518-3.86 1.687h-5.386c.023.095.049.188.076.281.036.118.072.237.116.353-.112.05-.222.105-.328.163-.072.039-.143.08-.212.122-.03.018-.061.034-.09.053-.091.057-.181.116-.268.178-.005.004-.011.007-.017.012-.092.066-.183.134-.271.205 0 0-.001 0-.002.002h6.947l.201-.205c1-1.018 2.02-1.518 3.03-1.484 1.475.047 2.507 1.225 2.515 1.233l.205.241h4.883l.006-.677c.012-1.177.35-2.098 1.01-2.741 1.101-1.076 2.771-1.076 2.785-1.068l.684.014v-.035c.663.102 2.044.429 2.813 1.431.577.751.728 1.783.445 3.065l-.292 1.33 1.241-.56c.018-.008 1.556-.671 3.199.902-1.223 1.084-1.737 2.555-1.868 3.681h-6.05c-2.01-2.381-5.696-1.643-5.857-1.608l-.055.013c-4.104 1.217-5.078 5.05-5.298 6.438-4.966 1.453-4.613 6.01-4.508 6.824.115.008.23.018.349.018.115 0 .229-.01.342-.017.047.154.102.306.161.454.018.045.039.088.059.133.044.104.09.206.141.305.024.049.051.096.076.143.052.096.105.189.162.28.027.044.056.087.084.132.062.093.127.186.194.274.027.036.055.071.082.106.078.101.161.197.246.29.02.022.039.046.06.067.336.359.719.672 1.138.933 0 0 .001 0 .001.001-1.359-1.473-1.709-3.131-1.731-3.243-.032-.179-.74-4.382 3.925-5.493l.495-.119.029-.508c.011-.184.3-4.476 4.353-5.697.299-.056 3.296-.558 4.664 1.356l.205.286h8.08l-.017-.7c-.004-.151-.05-3.692 3.687-4.353l.611-.11-.049-.619c-.002-.018-.12-1.685.979-2.911.784-.874 2.02-1.341 3.657-1.39l.43-.013c.58.04 4.66.492 4.66 5.295v.533l.518.13c.016.004 1.719.465 2.35 1.828.353.761.317 1.694-.09 2.779-.923-.534-2.069-.811-3.438-.811-.09-.009-2.303-.002-3.855 1.562-.854.861-1.334 2.01-1.432 3.417h-6.975c-1.954-.282-5.812.062-6.842 3.331-.18.391-1.042 2.525.224 4.973l.061.341v-.001c.096-.079.188-.162.279-.247.107-.104.214-.206.313-.317.241.283.513.539.806.769.011.009.021.019.031.027l-.183-1.024-.053-.097c-1.103-2.046-.267-3.796-.231-3.865l.045-.11c.924-3.047 5.215-2.445 5.396-2.42l8.489.008-.013-.695c-.022-1.341.329-2.389 1.045-3.116 1.137-1.154 2.861-1.167 2.887-1.167 1.603 0 2.802.426 3.564 1.263 1.123 1.234.971 3.01.969 3.03l-.048.476.429.208c2.913 1.422 2.193 3.995 2.161 4.104l.653.199.001-.001c.114.007.228.017.343.017.123 0 .243-.01.364-.018.319-1.32.131-3.813-2.526-5.324m-10.976-16.393c-1.748.157-3.106.77-4.04 1.825-1.025 1.153-1.265 2.534-1.311 3.314-.442.115-.837.271-1.198.454-1.32-1.381-2.753-1.711-3.811-1.634.094-1.244-.191-2.304-.852-3.163-1.128-1.468-3.01-1.864-3.824-1.97.441-3.053 3.231-3.518 3.569-3.562h7.118c1.576.094 2.742.603 3.465 1.511.849 1.068.921 2.474.888 3.225"/><circle fill="#8a93c1" cx="50" cy="37.02" r="17.412"/><circle fill="#fff" cx="50" cy="37.02" r="14.609"/><g fill="#a9a9f7"><path d="m50 25.1c-6.586 0-11.924 5.339-11.924 11.924h2.956c0-4.952 4.02-8.966 8.967-8.966 4.952 0 8.967 4.01 8.967 8.966 0 4.951-4.01 8.966-8.966 8.966v-1.191l-3.672 2.562 3.672 2.561v-.975c6.585 0 11.924-5.338 11.924-11.924 0-6.585-5.339-11.923-11.924-11.923"/><path d="m50.619 36.891c0 .341-.277.619-.619.619-.342 0-.618-.277-.618-.619v-6.331c0-.342.276-.619.618-.619.342 0 .619.277.619.619v6.331"/><path d="m46.632 41.906c-.242.242-.634.242-.874 0-.241-.242-.241-.632 0-.875l2.569-2.563c.241-.242.633-.242.874-.001.241.242.24.633-.001.875l-2.568 2.564"/></g></svg>